name C:/MyDriveSym/Projects/mobilecap/Data\Session20210827_0001\mocap\ForceDataProcessed\DJAsym3_forces.mot
datacolumns 28
datarows 6
range 2.33200000 2.33450000
endheader 
time	R_ground_force_vx	R_ground_force_vy	R_ground_force_vz	R_ground_force_px	R_ground_force_py	R_ground_force_pz	R_ground_torque_x	R_ground_torque_y	R_ground_torque_z	L_ground_force_vx	L_ground_force_vy	L_ground_force_vz	L_ground_force_px	L_ground_force_py	L_ground_force_pz	L_ground_torque_x	L_ground_torque_y	L_ground_torque_z	3_ground_force_vx	3_ground_force_vy	3_ground_force_vz	3_ground_force_px	3_ground_force_py	3_ground_force_pz	3_ground_torque_x	3_ground_torque_y	3_ground_torque_z	
          2.33200000	        -21.79444400	        863.98335600	        -28.72036200	         -0.19955700	          0.00600000	         -0.47326800	          0.00000000	         -7.72410900	          0.00000000	        -52.69850100	        696.22299500	         86.16351700	         -0.15929900	          0.00600000	         -0.75937200	          0.00000000	          4.90789200	          0.00000000	          0.00000000	          0.00000000	          0.00000000	          0.00000000	          0.00000000	          0.00000000	          0.00000000	          0.00000000	          0.00000000	
          2.33250000	        -21.70777400	        862.78847400	        -28.83037400	         -0.19944100	          0.00600000	         -0.47318400	          0.00000000	         -7.67460900	          0.00000000	        -53.18572800	        695.75445000	         85.91590400	         -0.15909600	          0.00600000	         -0.75940700	          0.00000000	          4.90188400	          0.00000000	          0.00000000	          0.00000000	          0.00000000	          0.00000000	          0.00000000	          0.00000000	          0.00000000	          0.00000000	          0.00000000	
          2.33300000	        -21.62778200	        861.57696400	        -28.94171200	         -0.19932300	          0.00600000	         -0.47310100	          0.00000000	         -7.62489400	          0.00000000	        -53.66813400	        695.27565200	         85.66669200	         -0.15889400	          0.00600000	         -0.75944200	          0.00000000	          4.89561300	          0.00000000	          0.00000000	          0.00000000	          0.00000000	          0.00000000	          0.00000000	          0.00000000	          0.00000000	          0.00000000	          0.00000000	
          2.33350000	        -21.55447900	        860.34900200	        -29.05420600	         -0.19920400	          0.00600000	         -0.47301800	          0.00000000	         -7.57498000	          0.00000000	        -54.14555300	        694.78685900	         85.41604100	         -0.15869200	          0.00600000	         -0.75947600	          0.00000000	          4.88907100	          0.00000000	          0.00000000	          0.00000000	          0.00000000	          0.00000000	          0.00000000	          0.00000000	          0.00000000	          0.00000000	          0.00000000	
          2.33400000	        -21.48786100	        859.10477700	        -29.16771000	         -0.19908200	          0.00600000	         -0.47293500	          0.00000000	         -7.52488600	          0.00000000	        -54.61782600	        694.28832000	         85.16408800	         -0.15849100	          0.00600000	         -0.75951000	          0.00000000	          4.88225500	          0.00000000	          0.00000000	          0.00000000	          0.00000000	          0.00000000	          0.00000000	          0.00000000	          0.00000000	          0.00000000	          0.00000000	
          2.33450000	        -21.42790900	        857.84450600	        -29.28209800	         -0.19896000	          0.00600000	         -0.47285100	          0.00000000	         -7.47462900	          0.00000000	        -55.08480400	        693.78027500	         84.91095900	         -0.15829100	          0.00600000	         -0.75954400	          0.00000000	          4.87517000	          0.00000000	          0.00000000	          0.00000000	          0.00000000	          0.00000000	          0.00000000	          0.00000000	          0.00000000	          0.00000000	          0.00000000	
